<svg width="6884" height="1682" viewBox="0 0 6884 1682" fill="none" xmlns="http://www.w3.org/2000/svg">
<path d="M6835.3 79.2136C6721.61 94.1136 6607.72 155.314 6494.02 192.914C6380.33 230.514 6266.44 246.314 6152.74 223.214C5994.55 192.014 5847.66 112.614 5690.57 72.6136C5524.28 30.4136 5349.79 0.21361 5178.7 31.3136C5061.01 52.6136 4957.41 104.314 4848.32 148.614C4608.43 246.014 4353.95 321.014 4098.06 239.514C3946.37 191.214 3823.18 84.5136 3671.39 35.3136C3523 -12.6864 3355.1 -12.4864 3208.01 40.4136C3064.62 91.9136 2945.33 192.914 2799.34 239.514C2543.45 321.114 2288.97 246.114 2049.08 148.614C1939.99 104.314 1836.39 52.7136 1718.7 31.3136C1547.61 0.21361 1373.12 30.4136 1206.83 72.6136C1049.74 112.514 902.848 191.914 744.657 223.214C630.963 246.214 517.07 230.414 403.377 192.914C289.583 155.314 175.69 94.1136 61.9964 79.2136C41.1976 76.5136 20.3988 75.3136 0 75.2136V1681.31H6884V75.4136C6867.9 75.9136 6851.6 77.1136 6835.3 79.2136Z" fill="black"/>
</svg>
